<mxfile host="app.diagrams.net" modified="2020-10-17T10:57:43.901Z" agent="5.0 (Windows NT 10.0; WOW64) AppleWebKit/537.36 (KHTML, like Gecko) coc_coc_browser/90.0.148 Chrome/84.0.4147.148 Safari/537.36" etag="ClxKLQ3NQOjDPRhO7njF" version="13.8.0" type="github">
  <diagram id="wh6WydeqkiqvTts692_q" name="Page-1">
    <mxGraphModel dx="1148" dy="642" grid="0" gridSize="10" guides="1" tooltips="1" connect="1" arrows="1" fold="1" page="1" pageScale="1" pageWidth="827" pageHeight="700" math="0" shadow="0">
      <root>
        <mxCell id="0" />
        <mxCell id="1" parent="0" />
        <mxCell id="WGfK5oyNRwsyWvVAaV-A-22" style="edgeStyle=orthogonalEdgeStyle;rounded=0;orthogonalLoop=1;jettySize=auto;html=1;exitX=0;exitY=0.5;exitDx=0;exitDy=0;entryX=1;entryY=0.5;entryDx=0;entryDy=0;" edge="1" parent="1" source="WGfK5oyNRwsyWvVAaV-A-3" target="WGfK5oyNRwsyWvVAaV-A-20">
          <mxGeometry relative="1" as="geometry">
            <mxPoint x="490" y="563" as="targetPoint" />
            <Array as="points">
              <mxPoint x="550" y="160" />
              <mxPoint x="550" y="563" />
            </Array>
          </mxGeometry>
        </mxCell>
        <mxCell id="WGfK5oyNRwsyWvVAaV-A-3" value="len(n) &amp;gt; 1" style="rhombus;whiteSpace=wrap;html=1;" vertex="1" parent="1">
          <mxGeometry x="374" y="120" width="80" height="80" as="geometry" />
        </mxCell>
        <mxCell id="WGfK5oyNRwsyWvVAaV-A-29" style="edgeStyle=orthogonalEdgeStyle;rounded=0;orthogonalLoop=1;jettySize=auto;html=1;exitX=0.5;exitY=1;exitDx=0;exitDy=0;entryX=0.5;entryY=0;entryDx=0;entryDy=0;" edge="1" parent="1" source="WGfK5oyNRwsyWvVAaV-A-5" target="WGfK5oyNRwsyWvVAaV-A-3">
          <mxGeometry relative="1" as="geometry" />
        </mxCell>
        <mxCell id="WGfK5oyNRwsyWvVAaV-A-5" value="vector n" style="shape=parallelogram;perimeter=parallelogramPerimeter;whiteSpace=wrap;html=1;fixedSize=1;" vertex="1" parent="1">
          <mxGeometry x="362" y="70" width="104" height="20" as="geometry" />
        </mxCell>
        <mxCell id="WGfK5oyNRwsyWvVAaV-A-23" style="edgeStyle=orthogonalEdgeStyle;rounded=0;orthogonalLoop=1;jettySize=auto;html=1;exitX=0;exitY=0.5;exitDx=0;exitDy=0;entryX=0;entryY=0.5;entryDx=0;entryDy=0;" edge="1" parent="1" source="WGfK5oyNRwsyWvVAaV-A-6" target="WGfK5oyNRwsyWvVAaV-A-20">
          <mxGeometry relative="1" as="geometry">
            <Array as="points">
              <mxPoint x="260" y="245" />
              <mxPoint x="260" y="563" />
            </Array>
          </mxGeometry>
        </mxCell>
        <mxCell id="WGfK5oyNRwsyWvVAaV-A-6" value="i in range(len(n))" style="rounded=0;whiteSpace=wrap;html=1;" vertex="1" parent="1">
          <mxGeometry x="356" y="230" width="116" height="30" as="geometry" />
        </mxCell>
        <mxCell id="WGfK5oyNRwsyWvVAaV-A-7" value="j = i - 1" style="rounded=0;whiteSpace=wrap;html=1;" vertex="1" parent="1">
          <mxGeometry x="356" y="290" width="114" height="30" as="geometry" />
        </mxCell>
        <mxCell id="WGfK5oyNRwsyWvVAaV-A-25" style="edgeStyle=orthogonalEdgeStyle;rounded=0;orthogonalLoop=1;jettySize=auto;html=1;exitX=1;exitY=0.5;exitDx=0;exitDy=0;entryX=1;entryY=0.5;entryDx=0;entryDy=0;" edge="1" parent="1" source="WGfK5oyNRwsyWvVAaV-A-8" target="WGfK5oyNRwsyWvVAaV-A-6">
          <mxGeometry relative="1" as="geometry">
            <Array as="points">
              <mxPoint x="530" y="365" />
              <mxPoint x="530" y="245" />
            </Array>
          </mxGeometry>
        </mxCell>
        <mxCell id="WGfK5oyNRwsyWvVAaV-A-37" style="edgeStyle=orthogonalEdgeStyle;rounded=0;orthogonalLoop=1;jettySize=auto;html=1;exitX=0.5;exitY=1;exitDx=0;exitDy=0;entryX=0.5;entryY=0;entryDx=0;entryDy=0;" edge="1" parent="1" source="WGfK5oyNRwsyWvVAaV-A-8" target="WGfK5oyNRwsyWvVAaV-A-9">
          <mxGeometry relative="1" as="geometry" />
        </mxCell>
        <mxCell id="WGfK5oyNRwsyWvVAaV-A-8" value="j &amp;gt;= 0 and v[j+1] &amp;lt; v[j]" style="rounded=0;whiteSpace=wrap;html=1;" vertex="1" parent="1">
          <mxGeometry x="341" y="350" width="144" height="30" as="geometry" />
        </mxCell>
        <mxCell id="WGfK5oyNRwsyWvVAaV-A-38" style="edgeStyle=orthogonalEdgeStyle;rounded=0;orthogonalLoop=1;jettySize=auto;html=1;exitX=0.5;exitY=1;exitDx=0;exitDy=0;entryX=0.5;entryY=0;entryDx=0;entryDy=0;" edge="1" parent="1" source="WGfK5oyNRwsyWvVAaV-A-9" target="WGfK5oyNRwsyWvVAaV-A-10">
          <mxGeometry relative="1" as="geometry" />
        </mxCell>
        <mxCell id="WGfK5oyNRwsyWvVAaV-A-9" value="v[j],v[j+1] = v[j+1],v[j]" style="rounded=0;whiteSpace=wrap;html=1;" vertex="1" parent="1">
          <mxGeometry x="346" y="410" width="136" height="30" as="geometry" />
        </mxCell>
        <mxCell id="WGfK5oyNRwsyWvVAaV-A-27" style="edgeStyle=orthogonalEdgeStyle;rounded=0;orthogonalLoop=1;jettySize=auto;html=1;exitX=0;exitY=0.5;exitDx=0;exitDy=0;entryX=0;entryY=0.5;entryDx=0;entryDy=0;" edge="1" parent="1" source="WGfK5oyNRwsyWvVAaV-A-10" target="WGfK5oyNRwsyWvVAaV-A-8">
          <mxGeometry relative="1" as="geometry">
            <Array as="points">
              <mxPoint x="310" y="485" />
              <mxPoint x="310" y="365" />
            </Array>
          </mxGeometry>
        </mxCell>
        <mxCell id="WGfK5oyNRwsyWvVAaV-A-10" value="j = j - 1" style="rounded=0;whiteSpace=wrap;html=1;" vertex="1" parent="1">
          <mxGeometry x="356" y="470" width="114" height="30" as="geometry" />
        </mxCell>
        <mxCell id="WGfK5oyNRwsyWvVAaV-A-14" value="" style="endArrow=classic;html=1;exitX=0.5;exitY=1;exitDx=0;exitDy=0;entryX=0.5;entryY=0;entryDx=0;entryDy=0;" edge="1" parent="1" source="WGfK5oyNRwsyWvVAaV-A-7" target="WGfK5oyNRwsyWvVAaV-A-8">
          <mxGeometry width="50" height="50" relative="1" as="geometry">
            <mxPoint x="390" y="420" as="sourcePoint" />
            <mxPoint x="440" y="370" as="targetPoint" />
          </mxGeometry>
        </mxCell>
        <mxCell id="WGfK5oyNRwsyWvVAaV-A-16" value="" style="endArrow=classic;html=1;exitX=0.5;exitY=1;exitDx=0;exitDy=0;entryX=0.5;entryY=0;entryDx=0;entryDy=0;" edge="1" parent="1" source="WGfK5oyNRwsyWvVAaV-A-6" target="WGfK5oyNRwsyWvVAaV-A-7">
          <mxGeometry width="50" height="50" relative="1" as="geometry">
            <mxPoint x="390" y="420" as="sourcePoint" />
            <mxPoint x="440" y="370" as="targetPoint" />
          </mxGeometry>
        </mxCell>
        <mxCell id="WGfK5oyNRwsyWvVAaV-A-17" value="" style="endArrow=classic;html=1;exitX=0.5;exitY=1;exitDx=0;exitDy=0;entryX=0.5;entryY=0;entryDx=0;entryDy=0;" edge="1" parent="1" source="WGfK5oyNRwsyWvVAaV-A-3" target="WGfK5oyNRwsyWvVAaV-A-6">
          <mxGeometry width="50" height="50" relative="1" as="geometry">
            <mxPoint x="390" y="420" as="sourcePoint" />
            <mxPoint x="440" y="370" as="targetPoint" />
          </mxGeometry>
        </mxCell>
        <mxCell id="WGfK5oyNRwsyWvVAaV-A-20" value="Vector n đã sắp xếp&lt;br&gt;tăng dần" style="shape=parallelogram;perimeter=parallelogramPerimeter;whiteSpace=wrap;html=1;fixedSize=1;" vertex="1" parent="1">
          <mxGeometry x="335" y="540" width="156" height="45" as="geometry" />
        </mxCell>
        <mxCell id="WGfK5oyNRwsyWvVAaV-A-30" value="False" style="text;html=1;strokeColor=none;fillColor=none;align=center;verticalAlign=middle;whiteSpace=wrap;rounded=0;" vertex="1" parent="1">
          <mxGeometry x="472" y="142" width="40" height="20" as="geometry" />
        </mxCell>
        <mxCell id="WGfK5oyNRwsyWvVAaV-A-31" value="True" style="text;html=1;strokeColor=none;fillColor=none;align=center;verticalAlign=middle;whiteSpace=wrap;rounded=0;" vertex="1" parent="1">
          <mxGeometry x="412" y="202" width="40" height="20" as="geometry" />
        </mxCell>
        <mxCell id="WGfK5oyNRwsyWvVAaV-A-32" value="False" style="text;html=1;strokeColor=none;fillColor=none;align=center;verticalAlign=middle;whiteSpace=wrap;rounded=0;" vertex="1" parent="1">
          <mxGeometry x="487" y="347" width="40" height="20" as="geometry" />
        </mxCell>
        <mxCell id="WGfK5oyNRwsyWvVAaV-A-33" value="True" style="text;html=1;strokeColor=none;fillColor=none;align=center;verticalAlign=middle;whiteSpace=wrap;rounded=0;" vertex="1" parent="1">
          <mxGeometry x="411" y="384" width="40" height="20" as="geometry" />
        </mxCell>
        <mxCell id="WGfK5oyNRwsyWvVAaV-A-34" value="True" style="text;html=1;strokeColor=none;fillColor=none;align=center;verticalAlign=middle;whiteSpace=wrap;rounded=0;" vertex="1" parent="1">
          <mxGeometry x="411" y="264" width="40" height="20" as="geometry" />
        </mxCell>
        <mxCell id="WGfK5oyNRwsyWvVAaV-A-35" value="False" style="text;html=1;strokeColor=none;fillColor=none;align=center;verticalAlign=middle;whiteSpace=wrap;rounded=0;" vertex="1" parent="1">
          <mxGeometry x="306" y="226" width="40" height="20" as="geometry" />
        </mxCell>
      </root>
    </mxGraphModel>
  </diagram>
</mxfile>
